<?xml version="1.0" encoding="UTF-8"?>
<svg xmlns="http://www.w3.org/2000/svg" viewBox="0 0 512 512">
  <defs>
    <style>
      .cls-1, .cls-2 {
        stroke: #000;
        stroke-miterlimit: 10;
      }

      .cls-2 {
        fill: #fff;
      }
    </style>
  </defs>
  <g id="_Слой_3" data-name="Слой 3">
    <rect class="cls-1" x=".5" y=".5" width="512" height="512" rx="60" ry="60"/>
  </g>
  <g id="_Слой_2" data-name="Слой 2">
    <g>
      <polygon class="cls-2" points="32.89 192 32.89 326.04 82.5 326.04 82.5 278.26 131 278.26 131 246.72 81.94 246.72 81.94 230.49 153.64 230.49 153.64 192 32.89 192"/>
      <polygon class="cls-2" points="179.06 192 179.06 229.74 226.23 229.74 226.23 325.96 275.28 325.96 275.28 229.74 322.45 229.74 322.45 192 179.06 192"/>
      <polygon class="cls-2" points="347.87 192 347.87 326.04 396 325.96 396 278.79 429.24 278.26 429.24 325.96 479.11 325.96 479.11 192 429.54 192 429.24 242.94 397.85 242.94 397.85 192 347.87 192"/>
    </g>
  </g>
</svg>